<svg id="Layer_1" data-name="Layer 1" xmlns="http://www.w3.org/2000/svg" viewBox="0 0 267.97 364.5"><defs><style>.cls-1{fill:#fff;stroke:#231f20;stroke-miterlimit:10;stroke-width:0.25px;}.cls-2{fill:#f1f2f2;}.cls-3{fill:#231f20;}.cls-4{fill:#e71e2a;}</style></defs><path class="cls-1" d="M409.88,396.44" transform="translate(-409.45 -332)"/><path class="cls-2" d="M677.42,539.18,658,534.26l-.24-.48c-19.53-28.39-36.4-12.58-36.4-12.58-23.36,18.16-37.34-13.55-37.34-13.55a188.88,188.88,0,0,0-14.28-21.93c-58.55-77.64-160.33-89.28-160.33-89.28,93.35,49.92,111.1,104.35,111.1,104.35C537.11,539.32,558.44,551,558.44,551c-2.52,6-9,17-9,17-14.58,26.46-42.66,48.72-42.66,48.72-33.48,28.08-85.86,46.08-85.86,46.08C510,644.6,530.12,620,530.12,620a265.76,265.76,0,0,1-22,34.08c-17,22-40.44,42.42-40.44,42.42,14.94-6.57,32.64-23.34,32.64-23.34C529,648,543.5,623.93,543.5,623.93c11.58-22.11,38.88-33.65,38.88-33.65,43.38-14.64,61.33-35.34,61.33-35.34,3.47-2.34,9.83,10.4,9.83,10.4l.12-1c1.62-14.22-5.16-22.56-5.16-22.56Z" transform="translate(-409.45 -332)"/><path class="cls-2" d="M625.34,518.66c-4,2.06-3.94-2-3.94-2-1.94-45.72-14.84-78.12-14.84-78.12-7.08-19.8-22.81-50.36-22.81-50.36A231.12,231.12,0,0,0,540,332c26.36,56,31,77.16,31,77.16,9,29,4.87,60,4.87,60s-3.35,19.92-7,15.36a189.53,189.53,0,0,1,12.84,19s3.66,6.67,6.88,11.69a31.73,31.73,0,0,0,9.62,9,18.08,18.08,0,0,0,14.07,1.75s3.39-.62,8.28-4.26A23.89,23.89,0,0,1,625.34,518.66Z" transform="translate(-409.45 -332)"/><path class="cls-3" d="M657.78,533.78l-26.44.54s12.51,9.36,13.86,14.49S639,559.49,639,559.49a31.68,31.68,0,0,0,4.69-4.55s1.1-.83,2.67.39c0,0,3.5,2.69,7.16,10,0,0,2.41-12.89-5-23.52l28.92-2.64-19.64-5.4" transform="translate(-409.45 -332)"/><path class="cls-4" d="M575.17,472.77s8.11-35.74,7.24-57.28c0,0,19.31,31.7,18.55,110.12a16.66,16.66,0,0,0,9.21.95s4.16-.37,9.6-4.17a49.4,49.4,0,0,1,5.21-3.55s-2.71,2.06-3.25-.31a6,6,0,0,1-.37-2.64l-.24-4.53-.43-5.92s-2.22-29.44-10.22-55.16c0,0-6.64-23.09-24.07-56.84,0,0-4.83-10.86-19.74-31.59A221.13,221.13,0,0,0,540,332s7.32,14.49,20.68,47.24a270.41,270.41,0,0,1,13,40.18,150.56,150.56,0,0,1,3.06,26.09S577.38,462,575.17,472.77Z" transform="translate(-409.45 -332)"/><path class="cls-4" d="M583.25,506.21c7,31.29,20.19,38.07,34.11,28.11s22.2-.54,22.2-.54l.34.37,17.9-.37s-.93-1.33-1.64-2.3c0,0-7-10-15.62-13.27,0,0-7.19-3.12-14-.09a25.51,25.51,0,0,0-6.05,3.69,25.12,25.12,0,0,1-9.61,4.64,17.4,17.4,0,0,1-9.65-.71,27.79,27.79,0,0,1-12-9.64,60.23,60.23,0,0,1-6-9.92" transform="translate(-409.45 -332)"/><path class="cls-4" d="M521.54,503.05c-9.29-32.32-38.47-69.44-38.47-69.44,57.36,22.56,100.16,72.57,100.16,72.57s-12-23.52-38-47.35a220.65,220.65,0,0,0-23-18.26s-5.35-4.26-25.08-15.2a311.25,311.25,0,0,0-30.48-13.76,268.13,268.13,0,0,0-31.83-10.08,225.94,225.94,0,0,0-25.46-5.09s9.34,4.82,18.15,10.31c0,0,10.27,6.08,18.42,11.89,0,0,20.63,14.05,38,31.16,0,0,10.55,10.27,16.76,18.49,0,0,12.65,15.81,15.81,23.73A102.32,102.32,0,0,1,521.54,503.05Z" transform="translate(-409.45 -332)"/><path class="cls-4" d="M558.44,551s-.42-1.38,2.67-2.13,3.45,3.09,3.45,3.09c3.42,31.14-34.44,68-34.44,68s-9.75,11.25-39.92,23.07a332.09,332.09,0,0,1-39.49,12.82s-10.4,3-29.79,7c0,0,36.84-12.18,71.93-35.61a204.86,204.86,0,0,0,23-18.34,227.15,227.15,0,0,0,19.39-20.35,129.77,129.77,0,0,0,12.49-17.47s6.47-11,9.25-16.82Z" transform="translate(-409.45 -332)"/></svg>